<svg id="Capa_1" fill="rgb(255,255,255)" enable-background="new 0 0 511.973 511.973" viewBox="0 0 511.973 511.973" xmlns="http://www.w3.org/2000/svg"><g><path d="m508.764 148.283-38.257-69.247c-4.76-9.087-18.452-11.916-26.786-3.784l-6.505 6.505-23.607-23.607c-5.506-5.575-16.683-7.106-23.769 0l-44.843 44.843-7.382-7.382c-4.203-4.203-9.791-6.518-15.735-6.518-5.943 0-11.531 2.314-15.734 6.518l-42.829 42.83c-3.687 3.686-5.918 8.436-6.412 13.558-4.124.258-8.008 1.741-11.227 4.292l-20.715-20.715 7.313-7.313c2.929-2.929 2.929-7.678 0-10.606-2.93-2.929-7.678-2.929-10.607 0l-12.611 12.611c-.002.002-.003.003-.005.005s-.003.003-.005.005l-12.577 12.577c-2.929 2.929-2.929 7.678 0 10.606 1.465 1.464 3.385 2.197 5.304 2.197s3.839-.732 5.304-2.197l7.279-7.279 20.72 20.72c-6.23 7.92-5.709 19.454 1.59 26.754l8.833 8.834-8.951 8.951-12.059-12.059c-4.203-4.203-9.791-6.518-15.734-6.518s-11.531 2.315-15.734 6.518l-108.223 108.219c-6.898 6.899-8.291 17.232-4.218 25.54l-31.572 31.574c-7.134 7.133-11.613 16.59-12.613 26.628l-2.24 22.489-31.96 31.96c-2.929 2.929-2.929 7.678 0 10.606 1.465 1.464 3.385 2.197 5.304 2.197s3.839-.732 5.304-2.197l31.959-31.959 22.489-2.24c10.039-1 19.496-5.479 26.629-12.612l31.573-31.573c3.084 1.512 6.441 2.289 9.806 2.289 5.697-.001 11.397-2.169 15.735-6.507l17.276-17.277c2.929-2.929 2.929-7.678-.001-10.606-2.928-2.93-7.677-2.929-10.606 0l-17.275 17.276c-2.827 2.828-7.429 2.828-10.256 0l-34.726-34.726c-2.828-2.828-2.828-7.428 0-10.256l108.22-108.22c1.369-1.37 3.19-2.124 5.127-2.124s3.758.754 5.127 2.124l34.727 34.726c1.369 1.37 2.124 3.19 2.124 5.127s-.755 3.758-2.125 5.128l-66.296 66.296c-2.929 2.929-2.929 7.678 0 10.606 2.93 2.929 7.678 2.929 10.607 0l66.295-66.296c4.204-4.203 6.519-9.791 6.519-15.735s-2.314-11.532-6.518-15.734l-12.059-12.059 8.951-8.951 58.075 58.075c13.004 13.004 30.294 20.228 48.685 20.342.14 0 .276.001.416.001 18.297 0 36.182-7.401 49.123-20.343l91.995-91.996c8.128-8.126 9.922-20.829 4.363-30.891zm-425.49 250.697c-4.689 4.69-10.907 7.635-17.508 8.293l-16.041 1.598 1.598-16.041c.657-6.601 3.603-12.818 8.294-17.509l30.717-30.718 23.659 23.659zm317.174-330.225c.512-.061.327-1.089 2.554 0l23.608 23.608-18.268 18.268-24.885-24.885zm-126.525 80.292 42.83-42.83c1.369-1.37 3.19-2.124 5.127-2.124 1.938 0 3.759.754 5.128 2.124l25.37 25.371c1.37 1.37 2.124 3.191 2.124 5.127 0 1.937-.754 3.758-2.124 5.128l-42.83 42.831c-1.369 1.37-3.19 2.124-5.127 2.124-1.938 0-3.759-.754-5.128-2.124l-25.371-25.371c-1.369-1.37-2.124-3.19-2.124-5.127s.755-3.759 2.125-5.129zm127.874 111.518c-10.146 10.147-24.167 15.949-38.514 15.949-.108 0-.217 0-.326-.001-14.418-.089-27.974-5.753-38.169-15.948l-77.516-77.516c-2.027-2.027-2.027-5.326 0-7.353l7.239-7.239c.981-.982 2.287-1.522 3.676-1.522s2.694.541 3.676 1.522l57.201 57.201c10.164 10.164 24.207 15.257 38.52 13.955 8.263-.748 16.241-3.633 23.072-8.343l34.457-23.76c3.41-2.351 4.268-7.022 1.917-10.432-2.352-3.41-7.022-4.269-10.433-1.917l-34.457 23.76c-4.71 3.248-10.211 5.237-15.908 5.753-9.871.891-19.553-2.614-26.561-9.623l-15.514-15.514c2.191-1.069 4.223-2.484 5.997-4.259l42.83-42.831c4.202-4.203 6.517-9.791 6.517-15.734s-2.314-11.531-6.517-15.734l-7.383-7.383 17.246-17.246 24.937 24.936c-7.242 8.286-6.938 20.914.955 28.808l56.762 56.762zm91.996-91.996-27.682 27.684-56.762-56.762c-2.386-2.386-2.386-6.267 0-8.653l44.979-44.979c.632-.038.966-1.575 3.05.431l38.257 69.247c2.345 4.245 1.588 9.604-1.842 13.032z"/><path d="m207.291 251.305c-2.929-2.929-7.677-2.929-10.607 0l-60.242 60.242c-2.929 2.929-2.929 7.678 0 10.606 1.465 1.465 3.384 2.197 5.304 2.197 1.919 0 3.839-.732 5.304-2.197l60.242-60.242c2.928-2.928 2.928-7.677-.001-10.606z"/></g></svg>